<svg width="50" height="50" fill="none" xmlns="http://www.w3.org/2000/svg"><g clip-path="url(#a)"><path d="M25 .19c-13.784 0-25 11.216-25 25s11.216 25 25 25 25-11.216 25-25-11.216-25-25-25Zm0 48.436c-6.135 0-11.725-2.372-15.906-6.245a22.51 22.51 0 0 0 4.823 3.02c.067 0 .131.007.198.007 11.27 0 20.408-9.137 20.408-20.41 0-11.271-9.138-20.409-20.408-20.409-.067 0-.131.005-.198.008-.208.095-.412.196-.617.299A23.274 23.274 0 0 1 25 1.754c12.924 0 23.438 10.514 23.438 23.436 0 12.921-10.514 23.436-23.438 23.436Z" fill="#C7313B"/></g><defs><clipPath id="a"><path fill="#fff" d="M0 0h50v50H0z"/></clipPath></defs></svg>