<svg width="123" height="40" viewBox="0 0 123 40" fill="none" xmlns="http://www.w3.org/2000/svg">
<g filter="url(#filter0_d_1_170)">
<path d="M6 0V3H3V6H0V31H3V34H6V37H9V0H6Z" fill="white"/>
</g>
<g filter="url(#filter1_d_1_170)">
<rect width="102" height="37" transform="translate(9)" fill="white"/>
<path d="M20.02 24.4999V12.5149H24.236C25.9927 12.5149 27.2563 12.7246 28.027 13.1439C28.7977 13.5519 29.183 14.3226 29.183 15.4559C29.183 15.7619 29.1433 16.0396 29.064 16.2889C28.996 16.5383 28.9223 16.7423 28.843 16.9009C28.7637 17.0596 28.6277 17.2013 28.435 17.3259C28.2423 17.4393 28.095 17.5243 27.993 17.5809C27.891 17.6376 27.6983 17.6886 27.415 17.7339C27.143 17.7793 26.9617 17.8076 26.871 17.8189C26.7917 17.8189 26.6047 17.8303 26.31 17.8529V18.5329C26.7633 18.5443 27.1317 18.5669 27.415 18.6009C27.6983 18.6349 28.027 18.7086 28.401 18.8219C28.775 18.9239 29.0697 19.0713 29.285 19.2639C29.5003 19.4453 29.6817 19.7116 29.829 20.0629C29.9877 20.4143 30.067 20.8336 30.067 21.3209C30.067 21.8536 29.965 22.3126 29.761 22.6979C29.5683 23.0833 29.3133 23.3893 28.996 23.6159C28.6787 23.8426 28.265 24.0239 27.755 24.1599C27.2563 24.2959 26.7463 24.3866 26.225 24.4319C25.715 24.4773 25.12 24.4999 24.44 24.4999H20.02ZM22.74 17.0709H24.576C24.8593 17.0709 25.069 17.0709 25.205 17.0709C25.341 17.0596 25.5053 17.0369 25.698 17.0029C25.902 16.9689 26.0437 16.9179 26.123 16.8499C26.2137 16.7706 26.293 16.6629 26.361 16.5269C26.429 16.3796 26.463 16.1983 26.463 15.9829C26.463 15.7676 26.429 15.5919 26.361 15.4559C26.293 15.3086 26.2137 15.2009 26.123 15.1329C26.0437 15.0536 25.902 14.9969 25.698 14.9629C25.5053 14.9289 25.341 14.9119 25.205 14.9119C25.069 14.9006 24.8593 14.8949 24.576 14.8949H22.74V17.0709ZM22.74 22.1199H24.78C25.188 22.1199 25.4883 22.1199 25.681 22.1199C25.8737 22.1086 26.1003 22.0803 26.361 22.0349C26.633 21.9896 26.82 21.9216 26.922 21.8309C27.0353 21.7403 27.1317 21.6099 27.211 21.4399C27.3017 21.2699 27.347 21.0546 27.347 20.7939C27.347 20.5333 27.3017 20.3179 27.211 20.1479C27.1317 19.9666 27.0353 19.8306 26.922 19.7399C26.82 19.6493 26.633 19.5813 26.361 19.5359C26.1003 19.4906 25.8737 19.4679 25.681 19.4679C25.4883 19.4566 25.188 19.4509 24.78 19.4509H22.74V22.1199ZM36.0773 22.2899C36.8706 22.2899 37.4769 22.0463 37.8963 21.5589C38.3156 21.0603 38.5253 20.2386 38.5253 19.0939V15.9149H41.2453V24.4999H38.5253V23.4629L39.0353 21.9329H38.3553C38.1739 22.7489 37.8056 23.4119 37.2503 23.9219C36.6949 24.4206 35.9809 24.6699 35.1083 24.6699C33.9976 24.6699 33.1306 24.3129 32.5073 23.5989C31.8953 22.8849 31.5893 21.8706 31.5893 20.5559V15.9149H34.3093V20.1309C34.3093 20.9129 34.4396 21.4683 34.7003 21.7969C34.9723 22.1256 35.4313 22.2899 36.0773 22.2899ZM50.4357 15.9149H53.5127L49.5857 23.9899V26.6419C49.5857 27.1179 49.4554 27.4806 49.1947 27.7299C48.9454 27.9793 48.5884 28.0926 48.1237 28.0699L43.9247 27.9509V25.5709L46.8657 25.6219V23.9899L42.9387 15.9149H45.9987L47.8857 20.6409V22.0009H48.5657V20.6409L50.4357 15.9149ZM60.6352 24.4999V12.5149H65.9902L69.6112 23.8199H70.2912L69.7812 22.1199V12.5149H72.5012V24.4999H67.1462L63.5252 13.1949H62.8452L63.3552 14.8949V24.4999H60.6352ZM74.0267 20.1989C74.0267 18.7596 74.48 17.6603 75.3867 16.9009C76.2933 16.1303 77.455 15.7449 78.8717 15.7449C80.2883 15.7449 81.4443 16.1303 82.3397 16.9009C83.2463 17.6603 83.6997 18.7596 83.6997 20.1989C83.6997 21.6383 83.2463 22.7433 82.3397 23.5139C81.4443 24.2846 80.2883 24.6699 78.8717 24.6699C77.455 24.6699 76.2933 24.2903 75.3867 23.5309C74.48 22.7603 74.0267 21.6496 74.0267 20.1989ZM76.7467 20.1989C76.7467 20.9016 76.9337 21.4286 77.3077 21.7799C77.6817 22.1199 78.203 22.2899 78.8717 22.2899C79.529 22.2899 80.0447 22.1199 80.4187 21.7799C80.7927 21.4286 80.9797 20.9016 80.9797 20.1989C80.9797 19.5076 80.7927 18.9919 80.4187 18.6519C80.0447 18.3006 79.529 18.1249 78.8717 18.1249C78.203 18.1249 77.6817 18.3006 77.3077 18.6519C76.9337 18.9919 76.7467 19.5076 76.7467 20.1989ZM84.5421 15.9149H87.1431L88.2481 23.8199H88.9281L89.5911 15.9149H95.2691L95.9321 23.8199H96.6121L97.7341 15.9149H100.318L99.1111 24.4999H93.4331L92.7701 16.5949H92.0901L91.4271 24.4999H85.7491L84.5421 15.9149Z" fill="black"/>
</g>
<g filter="url(#filter2_d_1_170)">
<path d="M114 37V34H117V31H120V6H117V3H114V0H111V37H114Z" fill="white"/>
</g>
<defs>
<filter id="filter0_d_1_170" x="0" y="0" width="12" height="40" filterUnits="userSpaceOnUse" color-interpolation-filters="sRGB">
<feFlood flood-opacity="0" result="BackgroundImageFix"/>
<feColorMatrix in="SourceAlpha" type="matrix" values="0 0 0 0 0 0 0 0 0 0 0 0 0 0 0 0 0 0 127 0" result="hardAlpha"/>
<feOffset dx="3" dy="3"/>
<feComposite in2="hardAlpha" operator="out"/>
<feColorMatrix type="matrix" values="0 0 0 0 0 0 0 0 0 0 0 0 0 0 0 0 0 0 1 0"/>
<feBlend mode="normal" in2="BackgroundImageFix" result="effect1_dropShadow_1_170"/>
<feBlend mode="normal" in="SourceGraphic" in2="effect1_dropShadow_1_170" result="shape"/>
</filter>
<filter id="filter1_d_1_170" x="9" y="0" width="105" height="40" filterUnits="userSpaceOnUse" color-interpolation-filters="sRGB">
<feFlood flood-opacity="0" result="BackgroundImageFix"/>
<feColorMatrix in="SourceAlpha" type="matrix" values="0 0 0 0 0 0 0 0 0 0 0 0 0 0 0 0 0 0 127 0" result="hardAlpha"/>
<feOffset dx="3" dy="3"/>
<feComposite in2="hardAlpha" operator="out"/>
<feColorMatrix type="matrix" values="0 0 0 0 0 0 0 0 0 0 0 0 0 0 0 0 0 0 1 0"/>
<feBlend mode="normal" in2="BackgroundImageFix" result="effect1_dropShadow_1_170"/>
<feBlend mode="normal" in="SourceGraphic" in2="effect1_dropShadow_1_170" result="shape"/>
</filter>
<filter id="filter2_d_1_170" x="111" y="0" width="12" height="40" filterUnits="userSpaceOnUse" color-interpolation-filters="sRGB">
<feFlood flood-opacity="0" result="BackgroundImageFix"/>
<feColorMatrix in="SourceAlpha" type="matrix" values="0 0 0 0 0 0 0 0 0 0 0 0 0 0 0 0 0 0 127 0" result="hardAlpha"/>
<feOffset dx="3" dy="3"/>
<feComposite in2="hardAlpha" operator="out"/>
<feColorMatrix type="matrix" values="0 0 0 0 0 0 0 0 0 0 0 0 0 0 0 0 0 0 1 0"/>
<feBlend mode="normal" in2="BackgroundImageFix" result="effect1_dropShadow_1_170"/>
<feBlend mode="normal" in="SourceGraphic" in2="effect1_dropShadow_1_170" result="shape"/>
</filter>
</defs>
</svg>
