<svg width="50" height="50" fill="none" xmlns="http://www.w3.org/2000/svg"><g clip-path="url(#a)"><path d="M45.944 17.483a8.041 8.041 0 0 0-8.118-.011l-12.012 6.903 6.904-12.011a8.041 8.041 0 0 0-.011-8.118A8.044 8.044 0 0 0 25.674.19h-1.348a8.044 8.044 0 0 0-7.033 4.056 8.04 8.04 0 0 0-.011 8.118l6.903 12.011-12.011-6.903a8.041 8.041 0 0 0-8.118.011A8.043 8.043 0 0 0 0 24.516v1.348a8.043 8.043 0 0 0 4.056 7.033 8.101 8.101 0 0 0 4.068 1.105c1.39 0 2.782-.364 4.05-1.094l12.011-6.904-6.903 12.012a8.04 8.04 0 0 0 .011 8.118 8.043 8.043 0 0 0 7.033 4.056h1.348a8.043 8.043 0 0 0 7.033-4.056 8.041 8.041 0 0 0 .011-8.118l-6.904-12.011 12.012 6.903a8.099 8.099 0 0 0 4.05 1.094 8.101 8.101 0 0 0 4.068-1.105A8.043 8.043 0 0 0 50 25.864v-1.348a8.043 8.043 0 0 0-4.056-7.033Z" fill="#C7313B"/></g><defs><clipPath id="a"><path fill="#fff" d="M0 0h50v50H0z"/></clipPath></defs></svg>