<svg width="50" height="50" fill="none" xmlns="http://www.w3.org/2000/svg"><path d="M26.785 2.493a2.023 2.023 0 0 0-3.898-.018C10.66 3.413 1 13.65 1 26.11c0 13.077 10.639 23.715 23.715 23.715S48.43 39.188 48.43 26.111c0-12.378-9.536-22.566-21.645-23.618Zm-2.07 46.032c-12.36 0-22.416-10.056-22.416-22.414 0-11.766 9.114-21.436 20.654-22.339a2.025 2.025 0 0 0 3.751.019C38.134 4.8 47.13 14.423 47.13 26.11c.002 12.36-10.055 22.414-22.414 22.414Z" fill="#C7313B"/><path d="M24.715 9.482c-9.17 0-16.63 7.46-16.63 16.63 0 9.17 7.46 16.629 16.63 16.629 9.17 0 16.63-7.46 16.63-16.63 0-9.17-7.46-16.63-16.63-16.63Zm0 1.301c8.453 0 15.328 6.877 15.328 15.328H24.715l-15.328-.004c.002-8.45 6.877-15.324 15.328-15.324Z" fill="#C7313B"/></svg>