<svg width="50" height="50" fill="none" xmlns="http://www.w3.org/2000/svg"><g clip-path="url(#a)"><path d="M49.623 25.35c-5.148-1.75-10.295-1.291-14.642.959-4.1 2.122-7.489 5.84-9.492 10.804v-9.334c3.936-4.196 6.016-8.85 6.016-13.497v-.015C31.5 9.427 29.259 4.593 25.02.287L24.737 0l-.284.284c-3.861 3.888-5.79 8.772-5.79 13.743 0 4.86 1.852 9.801 5.545 13.966v8.404c-2.034-4.605-5.287-8.073-9.189-10.093-4.347-2.25-9.494-2.708-14.642-.958L0 25.473l.123.387c1.846 5.802 5.06 10.027 9.292 12.223l.012.008c4.128 2.137 9.232 2.326 14.78.563V50h1.282V38.564c5.667 1.867 10.882 1.706 15.084-.468l.012-.008c4.232-2.196 7.446-6.421 9.292-12.223l.123-.387-.377-.128Z" fill="#C7313B"/></g><defs><clipPath id="a"><path fill="#fff" d="M0 0h50v50H0z"/></clipPath></defs></svg>