<svg width="45" height="43" viewBox="0 0 45 43" fill="none" xmlns="http://www.w3.org/2000/svg">
<g filter="url(#filter0_d_1_252)">
<path d="M7 0V3H4V6H1V34H4V37H7V40H10V0H7Z" fill="white"/>
</g>
<path d="M7 3V0H10V3V6H7V9H4V31H7V34H10V37V40H7V37H4V34H1V6H4V3H7Z" fill="white"/>
<g filter="url(#filter1_d_1_252)">
<rect width="22" height="40" transform="translate(10)" fill="white"/>
<rect x="10" width="22" height="3" fill="white"/>
<path d="M16.7794 9.31222C16.4701 9.26338 16.457 9.25672 16.6025 9.23452C16.8815 9.19012 17.5414 9.25117 17.9962 9.36105C19.0567 9.61968 20.0217 10.2801 21.0529 11.4533L21.3265 11.7641L21.7172 11.7009C23.3671 11.4289 25.0464 11.6454 26.4499 12.308C26.8363 12.49 27.4452 12.853 27.5212 12.9473C27.5462 12.9762 27.5907 13.1682 27.62 13.3725C27.7242 14.0795 27.6721 14.6212 27.4615 15.0263C27.3465 15.2461 27.34 15.3149 27.417 15.5036C27.4536 15.5815 27.5108 15.6474 27.5822 15.6937C27.6536 15.74 27.7363 15.7649 27.8208 15.7655C28.1703 15.7655 28.5459 15.1883 28.7196 14.3858L28.7891 14.0673L28.9258 14.226C29.677 15.0962 30.2664 16.2828 30.3673 17.1263L30.3945 17.3472L30.2675 17.1474C30.0504 16.8033 29.8333 16.568 29.5532 16.3782C29.0496 16.0375 28.5166 15.922 27.1055 15.8454C25.8312 15.7766 25.1093 15.6656 24.3951 15.427C23.1783 15.0219 22.565 14.4813 21.1191 12.5422C20.4776 11.6809 20.0803 11.2047 19.6863 10.8218C18.7886 9.94933 17.9072 9.49203 16.7794 9.31222Z" fill="black"/>
<path d="M27.8857 11.886C27.9182 11.3089 27.9942 10.9281 28.1484 10.5807C28.2091 10.4431 28.2667 10.3299 28.2754 10.3299C28.2657 10.4078 28.2456 10.484 28.2157 10.5563C28.1039 10.8937 28.0854 11.3555 28.1625 11.8916C28.2602 12.5731 28.3166 12.6708 29.02 13.4067C29.3511 13.7519 29.7353 14.187 29.8743 14.3746L30.1272 14.7142L29.8743 14.4711C29.5649 14.1748 28.8528 13.5943 28.6954 13.5121C28.5901 13.4566 28.5739 13.4577 28.5087 13.5232C28.449 13.5854 28.436 13.6764 28.4284 14.1104C28.4154 14.7853 28.3253 15.2204 28.1071 15.6532C27.9899 15.8863 27.9714 15.8375 28.0778 15.5722C28.157 15.3746 28.1646 15.2881 28.1646 14.6343C28.1646 13.3201 28.0116 13.0049 27.1161 12.4632C26.8466 12.3033 26.5699 12.1567 26.2868 12.0237C26.1469 11.9663 26.0113 11.8988 25.8808 11.8217C25.9058 11.7961 26.7785 12.0559 27.1291 12.1946C27.6523 12.4 27.738 12.4266 27.8021 12.4011C27.8444 12.3844 27.865 12.2579 27.8857 11.886ZM17.4576 14.1337C16.8291 13.2491 16.4405 11.8916 16.5241 10.8771L16.5501 10.563L16.6934 10.5896C16.9626 10.6396 17.4261 10.816 17.6432 10.9515C18.238 11.3211 18.4964 11.8083 18.758 13.0582C18.835 13.4244 18.936 13.8385 18.9827 13.9794C19.0565 14.2048 19.3387 14.732 19.5688 15.075C19.7338 15.3214 19.6231 15.4379 19.2584 15.4046C18.7004 15.3525 17.945 14.8197 17.4576 14.1337ZM27.1237 20.7213C24.1853 19.5115 23.1509 18.4614 23.1509 16.69C23.1509 16.4291 23.1595 16.216 23.1693 16.216C23.1802 16.216 23.2941 16.3015 23.4222 16.4069C24.0181 16.8953 24.6857 17.104 26.5321 17.3792C27.6186 17.5424 28.2309 17.6734 28.7953 17.8643C30.5885 18.4725 31.6978 19.7068 31.9627 21.3873C32.0387 21.8757 31.9942 22.7914 31.8693 23.2742C31.7716 23.6561 31.471 24.3431 31.3917 24.3698C31.37 24.3764 31.3483 24.291 31.3418 24.1722C31.3114 23.5417 30.9999 22.9268 30.4756 22.4662C29.8797 21.9434 29.0808 21.526 27.1237 20.7213ZM25.0613 21.223C25.0266 21.0086 24.9791 20.7966 24.9191 20.5881L24.8431 20.3595L24.9831 20.5193C25.1753 20.7413 25.3283 21.0232 25.4564 21.4006C25.5552 21.6881 25.566 21.7736 25.5649 22.2409C25.5649 22.7004 25.553 22.7958 25.4618 23.0556C25.335 23.4364 25.1228 23.7816 24.842 24.0634C24.3047 24.6228 23.6154 24.9314 22.619 25.0602C22.4453 25.0824 21.9416 25.1201 21.4977 25.1434C20.3797 25.2033 19.6448 25.3254 18.9837 25.563C18.9241 25.5903 18.8601 25.6061 18.7949 25.6096C18.7688 25.5818 19.2182 25.3077 19.5905 25.1245C20.1148 24.8659 20.6358 24.725 21.8049 24.5263C22.3823 24.4275 22.9794 24.3087 23.1302 24.261C24.5609 23.8126 25.2968 22.656 25.0613 21.223Z" fill="black"/>
<path d="M25.7024 24.039C25.3116 23.181 25.2226 22.3519 25.4364 21.5793C25.4592 21.4972 25.4961 21.4295 25.5179 21.4295C25.5913 21.4567 25.6605 21.4948 25.723 21.5427C25.9032 21.667 26.2636 21.8757 27.2242 22.4107C28.4237 23.08 29.1075 23.5983 29.5732 24.1888C29.9802 24.7072 30.232 25.2977 30.3536 26.0169C30.422 26.4243 30.3818 27.4044 30.2798 27.8151C29.9574 29.1093 29.2074 30.126 28.1393 30.7187C28.0385 30.7784 27.934 30.8314 27.8267 30.8775C27.8115 30.8775 27.8679 30.7298 27.9537 30.5478C28.3119 29.7797 28.3542 29.0316 28.0817 28.1991C27.9157 27.6897 27.5759 27.067 26.891 26.0169C26.0942 24.796 25.8989 24.4697 25.7024 24.039ZM14.6664 28.6686C15.7573 27.7274 17.1131 27.0592 18.3494 26.8539C18.8813 26.7651 19.7692 26.8006 20.262 26.9293C21.0522 27.1358 21.76 27.5997 22.1279 28.1514C22.4861 28.6908 22.6414 29.1615 22.8009 30.207C22.8661 30.62 22.9344 31.034 22.9551 31.1283C23.0745 31.67 23.31 32.104 23.6009 32.3215C24.0622 32.6667 24.8579 32.6878 25.6394 32.377C25.7211 32.3387 25.8072 32.3111 25.8956 32.2949C25.9238 32.3237 25.5309 32.5935 25.253 32.7355C24.9251 32.915 24.5578 33.0059 24.186 32.9997C23.4696 32.9997 22.8747 32.6279 22.3787 31.8675C22.281 31.7177 22.0617 31.2704 21.8902 30.8719C21.367 29.651 21.1087 29.278 20.5008 28.8707C19.97 28.5155 19.2873 28.4522 18.7738 28.7097C18.0987 29.0482 17.9109 29.9307 18.3939 30.489C18.5861 30.711 18.9443 30.903 19.2373 30.9396C19.3652 30.9569 19.4952 30.946 19.6185 30.9075C19.7419 30.869 19.8557 30.8039 19.9524 30.7166C20.049 30.6293 20.1262 30.5217 20.1786 30.4013C20.2311 30.2808 20.2577 30.1502 20.2566 30.0184C20.2566 29.6498 20.1177 29.4412 19.7703 29.2802C19.296 29.0616 18.7858 29.3169 18.788 29.7731C18.789 29.9673 18.8715 30.0894 19.0626 30.1782C19.1852 30.2337 19.1874 30.2392 19.0875 30.2181C18.6523 30.1249 18.5502 29.5888 18.9008 29.2325C19.3209 28.8041 20.1904 28.9927 20.4889 29.5766C20.6148 29.8219 20.6289 30.3114 20.5193 30.6066C20.275 31.2671 19.5608 31.6134 18.8368 31.4247C18.344 31.2959 18.1432 31.1572 17.5494 30.5312C16.5172 29.4434 16.1166 29.2325 14.6274 28.995L14.3419 28.9495L14.6664 28.6686Z" fill="black"/>
<path fill-rule="evenodd" clip-rule="evenodd" d="M10 7.18203L10.1042 7.3119C14.1291 12.3511 16.2089 14.9662 16.3413 15.1527C16.5584 15.4612 16.477 15.7376 16.1036 15.9552C15.8963 16.0761 15.4686 16.1982 15.2558 16.1982C15.0138 16.1982 14.7413 16.0795 14.5427 15.8875C14.4027 15.7509 13.8371 14.8874 12.5313 12.8151C11.9198 11.8356 11.3004 10.8614 10.673 9.89256C10.6198 9.8415 10.6209 9.84261 12.4293 13.1514C13.5647 15.2292 13.9489 15.9629 13.9489 16.0617C13.9489 16.2615 13.8947 16.3658 13.6537 16.6411C13.2521 17.0995 13.073 17.6145 12.9427 18.6801C12.7973 19.8755 12.3891 20.7191 11.2559 22.1632C10.5938 23.009 10.4852 23.1644 10.317 23.5051C10.1064 23.9336 10.0488 24.1744 10.025 24.7161C10 25.2888 10.0488 25.6595 10.2204 26.2067C10.3701 26.6863 10.5265 27.0037 10.9259 27.6364C11.2711 28.1836 11.4697 28.5898 11.4697 28.7486C11.4697 28.8751 11.4936 28.8751 12.0287 28.7519C13.3085 28.4566 14.3473 27.9361 14.9324 27.299C15.2938 26.9049 15.3785 26.6874 15.3818 26.1468C15.3828 25.7938 15.3709 25.7195 15.2775 25.5164C15.1256 25.1856 14.8488 24.9103 14.2388 24.4841C13.4388 23.9247 13.0979 23.474 13.0035 22.8558C12.9253 22.3485 13.0154 21.99 13.4583 21.0421C13.9153 20.0609 14.0293 19.6436 14.1063 18.6546C14.1552 18.0152 14.2236 17.7633 14.4037 17.5613C14.5904 17.3504 14.7598 17.2782 15.2233 17.2139C15.9788 17.1084 16.4596 16.9086 16.8547 16.5368C17.1977 16.2127 17.341 15.9008 17.3627 15.4324L17.3801 15.0772L17.188 14.8485C16.9123 14.52 14.6317 11.9471 10.3452 7.12765L10.2301 7L10 7.18203ZM11.8605 25.3654C11.9362 25.2283 11.9588 25.0671 11.9239 24.9137C11.8889 24.7604 11.7989 24.6261 11.6716 24.5374C11.4241 24.3687 11.0388 24.4486 11.0388 24.6683C11.0388 24.7349 11.0746 24.7838 11.156 24.8271C11.2939 24.8992 11.3036 24.9814 11.1962 25.1467C11.0866 25.3155 11.0952 25.4642 11.2212 25.5652C11.423 25.7272 11.7085 25.6373 11.8605 25.3654ZM17.8566 17.4003C17.5017 17.5113 17.1576 17.8965 17.0501 18.2994C16.985 18.5447 17.0219 18.9765 17.1196 19.1097C17.277 19.325 17.43 19.3816 17.8425 19.3783C18.6501 19.3727 19.3513 19.0186 19.4338 18.5758C19.5011 18.2128 19.1917 17.71 18.7673 17.488C18.5481 17.3748 18.0824 17.3293 17.8566 17.4003ZM18.801 18.1551C18.9258 17.9742 18.8704 17.7777 18.6599 17.6467C18.2561 17.3948 17.646 17.6023 17.646 17.993C17.646 18.1862 17.9641 18.3982 18.255 18.3982C18.4504 18.3982 18.7152 18.2794 18.801 18.1551Z" fill="black"/>
<rect x="10" y="37" width="22" height="3" fill="white"/>
</g>
<g filter="url(#filter2_d_1_252)">
<path d="M35 40V37H38V34H41V6H38V3H35V0H32V40H35Z" fill="white"/>
</g>
<path d="M35 37V40H32V37V34H35V31H38V9H35V6H32V3V0H35V3H38V6H41V34H38V37H35Z" fill="white"/>
<defs>
<filter id="filter0_d_1_252" x="1" y="0" width="12" height="43" filterUnits="userSpaceOnUse" color-interpolation-filters="sRGB">
<feFlood flood-opacity="0" result="BackgroundImageFix"/>
<feColorMatrix in="SourceAlpha" type="matrix" values="0 0 0 0 0 0 0 0 0 0 0 0 0 0 0 0 0 0 127 0" result="hardAlpha"/>
<feOffset dx="3" dy="3"/>
<feComposite in2="hardAlpha" operator="out"/>
<feColorMatrix type="matrix" values="0 0 0 0 0.117647 0 0 0 0 0.117647 0 0 0 0 0.117647 0 0 0 1 0"/>
<feBlend mode="normal" in2="BackgroundImageFix" result="effect1_dropShadow_1_252"/>
<feBlend mode="normal" in="SourceGraphic" in2="effect1_dropShadow_1_252" result="shape"/>
</filter>
<filter id="filter1_d_1_252" x="0" y="0" width="45" height="43" filterUnits="userSpaceOnUse" color-interpolation-filters="sRGB">
<feFlood flood-opacity="0" result="BackgroundImageFix"/>
<feColorMatrix in="SourceAlpha" type="matrix" values="0 0 0 0 0 0 0 0 0 0 0 0 0 0 0 0 0 0 127 0" result="hardAlpha"/>
<feOffset dx="3" dy="3"/>
<feComposite in2="hardAlpha" operator="out"/>
<feColorMatrix type="matrix" values="0 0 0 0 0.117647 0 0 0 0 0.117647 0 0 0 0 0.117647 0 0 0 1 0"/>
<feBlend mode="normal" in2="BackgroundImageFix" result="effect1_dropShadow_1_252"/>
<feBlend mode="normal" in="SourceGraphic" in2="effect1_dropShadow_1_252" result="shape"/>
</filter>
<filter id="filter2_d_1_252" x="32" y="0" width="12" height="43" filterUnits="userSpaceOnUse" color-interpolation-filters="sRGB">
<feFlood flood-opacity="0" result="BackgroundImageFix"/>
<feColorMatrix in="SourceAlpha" type="matrix" values="0 0 0 0 0 0 0 0 0 0 0 0 0 0 0 0 0 0 127 0" result="hardAlpha"/>
<feOffset dx="3" dy="3"/>
<feComposite in2="hardAlpha" operator="out"/>
<feColorMatrix type="matrix" values="0 0 0 0 0.117647 0 0 0 0 0.117647 0 0 0 0 0.117647 0 0 0 1 0"/>
<feBlend mode="normal" in2="BackgroundImageFix" result="effect1_dropShadow_1_252"/>
<feBlend mode="normal" in="SourceGraphic" in2="effect1_dropShadow_1_252" result="shape"/>
</filter>
</defs>
</svg>
